<?xml version="1.0" encoding="UTF-8"?>
<svg id="b" data-name="Livello 2" xmlns="http://www.w3.org/2000/svg" xmlns:xlink="http://www.w3.org/1999/xlink" viewBox="0 0 341.15 128.58">
  <defs>
    <linearGradient id="d" data-name="Sfumatura senza nome 52" x1="116.02" y1="83.79" x2="63.87" y2="-27.17" gradientUnits="userSpaceOnUse">
      <stop offset="0" stop-color="#bdaa8b"/>
      <stop offset=".03" stop-color="#96876e"/>
      <stop offset=".07" stop-color="#6d6251"/>
      <stop offset=".11" stop-color="#4d4439"/>
      <stop offset=".15" stop-color="#362f28"/>
      <stop offset=".18" stop-color="#28231e"/>
      <stop offset=".21" stop-color="#241f1b"/>
      <stop offset=".71" stop-color="#39322b"/>
      <stop offset="1" stop-color="#5c5145"/>
    </linearGradient>
    <linearGradient id="e" data-name="Sfumatura senza nome 75" x1="50.7" y1="54.96" x2="153.4" y2="54.96" gradientUnits="userSpaceOnUse">
      <stop offset="0" stop-color="#cec0ac"/>
      <stop offset=".12" stop-color="#897e71"/>
      <stop offset=".3" stop-color="#241f1b"/>
      <stop offset=".34" stop-color="#3e3934"/>
      <stop offset=".54" stop-color="#c2bbb0"/>
      <stop offset=".63" stop-color="#f8f0e3"/>
      <stop offset=".7" stop-color="#ccc5b9"/>
      <stop offset=".85" stop-color="#726c65"/>
      <stop offset=".95" stop-color="#39342f"/>
      <stop offset="1" stop-color="#241f1b"/>
    </linearGradient>
  </defs>
  <g id="c" data-name="Livello 1">
    <g>
      <path d="M30.03,17.75c-.56-1.26-.84-2.32-.84-3.16s.11-1.58.34-2.21c1.12-2.95,3.36-4.42,6.71-4.42h1.51v-.77s0-.81,0-.81H0v1.58h1.34c2.79,0,5.56.82,8.3,2.45,2.74,1.63,4.89,4.13,6.46,7.5l42.57,91.45c3.6-.75,4.92-1.29,8.48-2.22.53-1.16-37.13-89.39-37.13-89.39Z" fill="#2a241f"/>
      <path d="M50.7,108.15c15.79,2.16,19.49-8.94,25.54-20.46l12.37-27.91c12.14-27.38,24.12-47.15,54.15-56.99,3.61-1.15,6.97-2.25,10.65-2.79-15.81,4.66-24.32,15.58-30.78,30.06-3.62,8.12-6.64,16.09-9.78,24.44-5.73,15.27-12.7,32.87-24.34,44.38-10.06,9.95-24.47,13.55-37.81,9.27Z" fill="url(#d)"/>
      <path d="M141.33,4.33c-8.09,5.23-14.27,13.31-19.62,25.31-3.54,7.93-6.41,15.47-9.8,24.5-6.09,16.24-12.97,33.01-24.11,44.02-7.01,6.93-16.17,10.75-25.79,10.75-.83,0-1.66-.03-2.49-.09,8.2-2.11,11.92-9.46,15.83-17.18.58-1.15,1.17-2.32,1.79-3.49l.02-.03v-.03s12.39-27.91,12.39-27.91c10.83-24.42,22.24-45.51,51.8-55.85M153.4,0c-3.67.53-7.04,1.63-10.65,2.79-30.03,9.84-42.01,29.61-54.15,56.99l-12.37,27.91c-5.53,10.54-9.09,20.73-21.76,20.73-1.18,0-2.43-.09-3.78-.27,3.73,1.2,7.53,1.78,11.31,1.78,9.74,0,19.25-3.87,26.5-11.04,11.64-11.51,18.61-29.12,24.34-44.38,3.13-8.35,6.16-16.32,9.78-24.44C129.08,15.58,137.59,4.66,153.4,0h0Z" fill="url(#e)"/>
    </g>
    <g>
      <path d="M140.59,108.56c1.39,0,2.59-.5,3.58-1.49s1.51-2.18,1.57-3.58v-45.03c-.16-1.29-.72-2.37-1.69-3.26-.96-.88-2.12-1.33-3.46-1.33h-.96l-.08-.8h23.56c1.66,0,3.47-.16,5.43-.48,1.96-.32,3.34-.64,4.14-.96v10.13h-.8v-1.45c0-1.29-.44-2.38-1.33-3.3-.88-.91-1.94-1.39-3.18-1.45h-16.4v24.84h13.59c1.07-.05,1.98-.45,2.73-1.21s1.12-1.69,1.12-2.81v-1.13h.8v12.7h-.8v-1.21c0-1.07-.36-1.98-1.08-2.73-.72-.75-1.62-1.15-2.69-1.21h-13.67v24.04h11.5c3.97,0,7-.88,9.08-2.65,2.09-1.77,3.83-4.39,5.23-7.88h.8l-4.66,13.03h-33.37v-.8h1.04Z" fill="#0d0d0c"/>
      <path d="M210.3,108.56c1.39,0,2.59-.5,3.58-1.49s1.51-2.18,1.57-3.58v-44.54c-.05-1.39-.58-2.59-1.57-3.58-.99-.99-2.18-1.49-3.58-1.49h-1.04v-.8h17.61v.8h-1.05c-1.93,0-3.4.83-4.42,2.49-.48.8-.72,1.66-.72,2.57v47.92h11.5c3.97,0,7-.88,9.08-2.65,2.09-1.77,3.83-4.39,5.23-7.88h.8l-4.66,13.03h-33.37v-.8h1.04Z" fill="#0d0d0c"/>
      <path d="M287.4,60.03c5.33-5.39,12.29-8.08,20.87-8.08s15.54,2.69,20.9,8.08c5.36,5.39,8.04,12.45,8.04,21.19s-2.68,15.8-8.04,21.19c-5.36,5.39-12.33,8.08-20.9,8.08s-15.53-2.69-20.87-8.08c-5.33-5.39-8-12.45-8-21.19s2.67-15.8,8-21.19ZM291.82,100.68c4.15,4.93,9.65,7.4,16.48,7.4s12.33-2.46,16.48-7.4c4.15-4.93,6.23-11.42,6.23-19.46,0-5.31-.94-10-2.81-14.07-1.88-4.07-4.54-7.22-8-9.45-3.46-2.22-7.44-3.34-11.94-3.34-6.81,0-12.29,2.47-16.44,7.4-4.16,4.93-6.23,11.42-6.23,19.46s2.08,14.53,6.23,19.46Z" fill="#0d0d0c"/>
    </g>
  </g>
</svg>