<?xml version="1.0" encoding="UTF-8"?>
<svg id="b" data-name="Livello 2" xmlns="http://www.w3.org/2000/svg" xmlns:xlink="http://www.w3.org/1999/xlink" viewBox="0 0 399.6 109.93">
  <defs>
    <linearGradient id="d" data-name="Sfumatura senza nome 52" x1="116.02" y1="83.79" x2="63.87" y2="-27.17" gradientUnits="userSpaceOnUse">
      <stop offset="0" stop-color="#bdaa8b"/>
      <stop offset=".03" stop-color="#96876e"/>
      <stop offset=".07" stop-color="#6d6251"/>
      <stop offset=".11" stop-color="#4d4439"/>
      <stop offset=".15" stop-color="#362f28"/>
      <stop offset=".18" stop-color="#28231e"/>
      <stop offset=".21" stop-color="#241f1b"/>
      <stop offset=".71" stop-color="#39322b"/>
      <stop offset="1" stop-color="#5c5145"/>
    </linearGradient>
    <linearGradient id="e" data-name="Sfumatura senza nome 75" x1="50.7" y1="54.96" x2="153.4" y2="54.96" gradientUnits="userSpaceOnUse">
      <stop offset="0" stop-color="#cec0ac"/>
      <stop offset=".12" stop-color="#897e71"/>
      <stop offset=".3" stop-color="#241f1b"/>
      <stop offset=".34" stop-color="#3e3934"/>
      <stop offset=".54" stop-color="#c2bbb0"/>
      <stop offset=".63" stop-color="#f8f0e3"/>
      <stop offset=".7" stop-color="#ccc5b9"/>
      <stop offset=".85" stop-color="#726c65"/>
      <stop offset=".95" stop-color="#39342f"/>
      <stop offset="1" stop-color="#241f1b"/>
    </linearGradient>
  </defs>
  <g id="c" data-name="Livello 1">
    <g>
      <path d="M30.03,17.75c-.56-1.26-.84-2.32-.84-3.16s.11-1.58.34-2.21c1.12-2.95,3.36-4.42,6.71-4.42h1.51v-.77s0-.81,0-.81H0v1.58h1.34c2.79,0,5.56.82,8.3,2.45,2.74,1.63,4.89,4.13,6.46,7.5l42.57,91.45c3.6-.75,4.92-1.29,8.48-2.22.53-1.16-37.13-89.39-37.13-89.39Z" fill="#2a241f"/>
      <path d="M50.7,108.15c15.79,2.16,19.49-8.94,25.54-20.46l12.37-27.91c12.14-27.38,24.12-47.15,54.15-56.99,3.61-1.15,6.97-2.25,10.65-2.79-15.81,4.66-24.32,15.58-30.78,30.06-3.62,8.12-6.64,16.09-9.78,24.44-5.73,15.27-12.7,32.87-24.34,44.38-10.06,9.95-24.47,13.55-37.81,9.27Z" fill="url(#d)"/>
      <path d="M141.33,4.33c-8.09,5.23-14.27,13.31-19.62,25.31-3.54,7.93-6.41,15.47-9.8,24.5-6.09,16.24-12.97,33.01-24.11,44.02-7.01,6.93-16.17,10.75-25.79,10.75-.83,0-1.66-.03-2.49-.09,8.2-2.11,11.92-9.46,15.83-17.18.58-1.15,1.17-2.32,1.79-3.49l.02-.03v-.03s12.39-27.91,12.39-27.91c10.83-24.42,22.24-45.51,51.8-55.85M153.4,0c-3.67.53-7.04,1.63-10.65,2.79-30.03,9.84-42.01,29.61-54.15,56.99l-12.37,27.91c-5.53,10.54-9.09,20.73-21.76,20.73-1.18,0-2.43-.09-3.78-.27,3.73,1.2,7.53,1.78,11.31,1.78,9.74,0,19.25-3.87,26.5-11.04,11.64-11.51,18.61-29.12,24.34-44.38,3.13-8.35,6.16-16.32,9.78-24.44C129.08,15.58,137.59,4.66,153.4,0h0Z" fill="url(#e)"/>
    </g>
    <g>
      <path d="M204.67,34.36h-.61c-1.53,0-2.92.61-4.18,1.82-.72.63-1.28,1.42-1.69,2.36l-16.26,36.36c-1.66,3.64-2.5,5.96-2.5,6.95h-.61l-18.96-43.24c-.63-1.44-1.5-2.51-2.6-3.2-1.1-.7-2.22-1.05-3.34-1.05h-.54v-.67h15.18v.67h-.61c-1.35,0-2.25.63-2.7,1.89-.09.27-.13.58-.13.94s.11.81.34,1.35l14.1,35.35,14.71-35.35c.18-.54.27-1.07.27-1.58s-.24-1.08-.71-1.69c-.47-.61-1.18-.91-2.12-.91h-.61v-.67h13.56v.67Z" fill="#0d0d0c"/>
      <path d="M231.11,80.23c1.17,0,2.17-.42,3-1.25.83-.83,1.27-1.83,1.32-3v-37.78c-.13-1.08-.61-1.99-1.42-2.73-.81-.74-1.78-1.11-2.9-1.11h-.81l-.07-.67h19.76c1.39,0,2.91-.13,4.55-.4s2.8-.54,3.47-.81v8.5h-.67v-1.21c0-1.08-.37-2-1.11-2.77-.74-.76-1.63-1.17-2.66-1.21h-13.76v20.84h11.4c.9-.04,1.66-.38,2.29-1.01s.94-1.42.94-2.36v-.94h.67v10.66h-.67v-1.01c0-.9-.3-1.66-.91-2.29-.61-.63-1.36-.97-2.26-1.01h-11.47v20.17h9.65c3.33,0,5.87-.74,7.62-2.23,1.75-1.48,3.21-3.69,4.38-6.61h.67l-3.91,10.93h-27.99v-.67h.88Z" fill="#0d0d0c"/>
      <path d="M289.71,80.23c1.17,0,2.17-.42,3-1.25.83-.83,1.27-1.83,1.32-3v-37.37c-.04-1.17-.48-2.17-1.32-3-.83-.83-1.83-1.25-3-1.25h-.88v-.67h14.77v.67h-.88c-1.62,0-2.86.7-3.71,2.09-.41.67-.61,1.39-.61,2.16v40.2h9.65c3.33,0,5.87-.74,7.62-2.23,1.75-1.48,3.21-3.69,4.38-6.61h.67l-3.91,10.93h-27.99v-.67h.88Z" fill="#0d0d0c"/>
      <path d="M354.5,39.52c4.47-4.52,10.31-6.78,17.5-6.78s13.04,2.26,17.54,6.78c4.5,4.52,6.75,10.45,6.75,17.77s-2.25,13.25-6.75,17.77c-4.5,4.52-10.34,6.78-17.54,6.78s-13.03-2.26-17.5-6.78c-4.48-4.52-6.71-10.44-6.71-17.77s2.24-13.25,6.71-17.77ZM358.21,73.62c3.48,4.14,8.09,6.21,13.83,6.21s10.34-2.07,13.83-6.21c3.48-4.14,5.23-9.58,5.23-16.32,0-4.45-.79-8.39-2.36-11.8-1.58-3.42-3.81-6.06-6.71-7.93-2.9-1.87-6.24-2.8-10.02-2.8-5.71,0-10.31,2.07-13.79,6.21-3.49,4.14-5.23,9.58-5.23,16.32s1.74,12.19,5.23,16.32Z" fill="#0d0d0c"/>
    </g>
  </g>
</svg>