<?xml version="1.0" encoding="UTF-8"?>
<svg id="b" data-name="Livello 2" xmlns="http://www.w3.org/2000/svg" xmlns:xlink="http://www.w3.org/1999/xlink" viewBox="0 0 201.97 144.73">
  <defs>
    <linearGradient id="d" data-name="Sfumatura senza nome 52" x1="152.75" y1="110.32" x2="84.09" y2="-35.78" gradientUnits="userSpaceOnUse">
      <stop offset="0" stop-color="#bdaa8b"/>
      <stop offset=".03" stop-color="#96876e"/>
      <stop offset=".07" stop-color="#6d6251"/>
      <stop offset=".11" stop-color="#4d4439"/>
      <stop offset=".15" stop-color="#362f28"/>
      <stop offset=".18" stop-color="#28231e"/>
      <stop offset=".21" stop-color="#241f1b"/>
      <stop offset=".71" stop-color="#39322b"/>
      <stop offset="1" stop-color="#5c5145"/>
    </linearGradient>
    <linearGradient id="e" data-name="Sfumatura senza nome 75" x1="66.75" y1="72.36" x2="201.97" y2="72.36" gradientUnits="userSpaceOnUse">
      <stop offset="0" stop-color="#cec0ac"/>
      <stop offset=".12" stop-color="#897e71"/>
      <stop offset=".3" stop-color="#241f1b"/>
      <stop offset=".34" stop-color="#3e3934"/>
      <stop offset=".54" stop-color="#c2bbb0"/>
      <stop offset=".63" stop-color="#f8f0e3"/>
      <stop offset=".7" stop-color="#ccc5b9"/>
      <stop offset=".85" stop-color="#726c65"/>
      <stop offset=".95" stop-color="#39342f"/>
      <stop offset="1" stop-color="#241f1b"/>
    </linearGradient>
  </defs>
  <g id="c" data-name="Livello 1">
    <g>
      <path d="M39.54,23.37c-.74-1.66-1.1-3.05-1.1-4.16s.14-2.08.44-2.91c1.47-3.88,4.42-5.82,8.84-5.82h1.99v-1.01s0-1.07,0-1.07H0v2.08h1.77c3.68,0,7.32,1.08,10.93,3.22,3.61,2.15,6.44,5.44,8.5,9.88l56.05,120.41c4.74-.98,6.48-1.7,11.16-2.93.7-1.52-48.88-117.69-48.88-117.69Z" fill="#2a241f"/>
      <path d="M66.75,142.39c20.79,2.85,25.66-11.77,33.62-26.93l16.29-36.75c15.98-36.05,31.75-62.08,71.29-75.04,4.75-1.52,9.18-2.97,14.02-3.67-20.82,6.13-32.02,20.52-40.52,39.57-4.77,10.69-8.74,21.19-12.87,32.18-7.54,20.1-16.72,43.28-32.05,58.43-13.25,13.1-32.21,17.84-49.78,12.2Z" fill="url(#d)"/>
      <path d="M186.08,5.7c-10.66,6.88-18.8,17.53-25.84,33.33-4.66,10.44-8.44,20.37-12.9,32.26-8.02,21.38-17.08,43.46-31.74,57.96-9.23,9.13-21.29,14.16-33.96,14.16-1.09,0-2.19-.04-3.28-.11,10.8-2.78,15.7-12.46,20.84-22.62.76-1.5,1.54-3.05,2.35-4.59l.02-.04.02-.04,16.29-36.75c7.1-16.01,15.23-32.65,26.6-45.85,11.05-12.83,24.32-21.67,41.6-27.69M201.97,0c-4.83.7-9.26,2.15-14.02,3.67-39.54,12.96-55.31,38.99-71.29,75.04l-16.29,36.75c-7.28,13.87-11.97,27.29-28.65,27.29-1.55,0-3.2-.12-4.97-.36,4.91,1.57,9.92,2.34,14.89,2.34,12.83,0,25.35-5.1,34.89-14.54,15.33-15.16,24.51-38.34,32.05-58.43,4.13-10.99,8.1-21.49,12.87-32.18C169.95,20.52,181.15,6.13,201.97,0h0Z" fill="url(#e)"/>
    </g>
  </g>
</svg>