<?xml version="1.0" encoding="UTF-8"?>
<svg id="b" data-name="Livello 2" xmlns="http://www.w3.org/2000/svg" xmlns:xlink="http://www.w3.org/1999/xlink" viewBox="0 0 201.97 206">
  <defs>
    <linearGradient id="d" data-name="Sfumatura senza nome 52" x1="152.75" y1="110.32" x2="84.09" y2="-35.78" gradientUnits="userSpaceOnUse">
      <stop offset="0" stop-color="#bdaa8b"/>
      <stop offset=".03" stop-color="#96876e"/>
      <stop offset=".07" stop-color="#6d6251"/>
      <stop offset=".11" stop-color="#4d4439"/>
      <stop offset=".15" stop-color="#362f28"/>
      <stop offset=".18" stop-color="#28231e"/>
      <stop offset=".21" stop-color="#241f1b"/>
      <stop offset=".71" stop-color="#39322b"/>
      <stop offset="1" stop-color="#5c5145"/>
    </linearGradient>
    <linearGradient id="e" data-name="Sfumatura senza nome 75" x1="66.75" y1="72.36" x2="201.97" y2="72.36" gradientUnits="userSpaceOnUse">
      <stop offset="0" stop-color="#cec0ac"/>
      <stop offset=".12" stop-color="#897e71"/>
      <stop offset=".3" stop-color="#241f1b"/>
      <stop offset=".34" stop-color="#3e3934"/>
      <stop offset=".54" stop-color="#c2bbb0"/>
      <stop offset=".63" stop-color="#f8f0e3"/>
      <stop offset=".7" stop-color="#ccc5b9"/>
      <stop offset=".85" stop-color="#726c65"/>
      <stop offset=".95" stop-color="#39342f"/>
      <stop offset="1" stop-color="#241f1b"/>
    </linearGradient>
  </defs>
  <g id="c" data-name="Livello 1">
    <g>
      <g>
        <path d="M39.54,23.37c-.74-1.66-1.1-3.05-1.1-4.16s.14-2.08.44-2.91c1.47-3.88,4.42-5.82,8.84-5.82h1.99v-1.01s0-1.07,0-1.07H0v2.08h1.77c3.68,0,7.32,1.08,10.93,3.22,3.61,2.15,6.44,5.44,8.5,9.88l56.05,120.41c4.74-.98,6.48-1.7,11.16-2.93.7-1.52-48.88-117.69-48.88-117.69Z" fill="#2a241f"/>
        <path d="M66.75,142.39c20.79,2.85,25.66-11.77,33.62-26.93l16.29-36.75c15.98-36.05,31.75-62.08,71.29-75.04C192.71,2.15,197.14.7,201.97,0c-20.82,6.13-32.02,20.52-40.52,39.57-4.77,10.69-8.74,21.19-12.87,32.18-7.54,20.1-16.72,43.28-32.05,58.43-13.25,13.1-32.21,17.84-49.78,12.2Z" fill="url(#d)"/>
        <path d="M186.08,5.7c-10.66,6.88-18.8,17.53-25.84,33.33-4.66,10.45-8.44,20.37-12.9,32.26-8.02,21.38-17.08,43.46-31.74,57.96-9.23,9.13-21.29,14.16-33.96,14.16-1.09,0-2.19-.04-3.28-.11,10.8-2.78,15.7-12.46,20.84-22.62.76-1.5,1.54-3.05,2.35-4.59l.02-.04.02-.04,16.29-36.75c7.1-16.01,15.23-32.65,26.6-45.85,11.05-12.83,24.32-21.67,41.6-27.69M201.97,0c-4.83.7-9.26,2.15-14.02,3.67-39.54,12.96-55.31,38.99-71.29,75.04l-16.29,36.75c-7.28,13.87-11.97,27.29-28.65,27.29-1.55,0-3.2-.12-4.97-.36,4.91,1.57,9.92,2.34,14.89,2.34,12.83,0,25.35-5.1,34.89-14.54,15.33-15.16,24.51-38.34,32.05-58.43,4.13-10.99,8.1-21.49,12.87-32.18,8.5-19.06,19.7-33.44,40.52-39.57h0Z" fill="url(#e)"/>
      </g>
      <g>
        <path d="M44,158.25h-.41c-1.04,0-1.99.41-2.84,1.24-.49.43-.87.96-1.15,1.61l-11.05,24.72c-1.13,2.48-1.7,4.05-1.7,4.72h-.41l-12.89-29.4c-.43-.98-1.02-1.7-1.77-2.18-.75-.47-1.51-.71-2.27-.71h-.37v-.46h10.32v.46h-.41c-.92,0-1.53.43-1.83,1.28-.06.18-.09.4-.09.64s.08.55.23.92l9.59,24.03,10-24.03c.12-.37.18-.73.18-1.08s-.16-.73-.48-1.15-.8-.62-1.45-.62h-.41v-.46h9.22v.46Z" fill="#0d0d0c"/>
        <path d="M61.98,189.43c.79,0,1.47-.28,2.04-.85.57-.57.86-1.25.89-2.04v-25.68c-.09-.73-.41-1.35-.96-1.86-.55-.5-1.21-.76-1.97-.76h-.55l-.05-.46h13.44c.95,0,1.98-.09,3.1-.28s1.9-.37,2.36-.55v5.78h-.46v-.83c0-.73-.25-1.36-.76-1.88-.5-.52-1.11-.79-1.81-.83h-9.36v14.17h7.75c.61-.03,1.13-.26,1.56-.69s.64-.96.64-1.61v-.64h.46v7.25h-.46v-.69c0-.61-.21-1.13-.62-1.56-.41-.43-.92-.66-1.54-.69h-7.8v13.71h6.56c2.26,0,3.99-.5,5.18-1.51,1.19-1.01,2.19-2.51,2.98-4.5h.46l-2.66,7.43h-19.03v-.46h.6Z" fill="#0d0d0c"/>
        <path d="M102.2,189.43c.79,0,1.47-.28,2.04-.85.57-.57.86-1.25.89-2.04v-25.41c-.03-.79-.33-1.47-.89-2.04-.57-.57-1.25-.85-2.04-.85h-.6v-.46h10.04v.46h-.6c-1.1,0-1.94.47-2.52,1.42-.28.46-.41.95-.41,1.47v27.33h6.56c2.26,0,3.99-.5,5.18-1.51,1.19-1.01,2.19-2.51,2.98-4.5h.46l-2.66,7.43h-19.03v-.46h.6Z" fill="#0d0d0c"/>
        <path d="M146.62,161.76c3.04-3.07,7.01-4.61,11.9-4.61s8.87,1.54,11.92,4.61c3.06,3.07,4.59,7.1,4.59,12.08s-1.53,9.01-4.59,12.08c-3.06,3.07-7.03,4.61-11.92,4.61s-8.86-1.54-11.9-4.61c-3.04-3.07-4.56-7.1-4.56-12.08s1.52-9.01,4.56-12.08ZM149.14,184.94c2.37,2.81,5.5,4.22,9.4,4.22s7.03-1.41,9.4-4.22c2.37-2.81,3.55-6.51,3.55-11.1,0-3.03-.54-5.7-1.61-8.03-1.07-2.32-2.59-4.12-4.56-5.39-1.97-1.27-4.24-1.9-6.81-1.9-3.88,0-7.01,1.41-9.38,4.22-2.37,2.81-3.55,6.51-3.55,11.1s1.18,8.29,3.55,11.1Z" fill="#0d0d0c"/>
      </g>
      <g opacity=".85">
        <path d="M32.98,196.33v.88h-.1v-.16c0-.14-.05-.26-.15-.36-.1-.1-.22-.15-.36-.15h-2.2v3.22h1.76c.14,0,.26-.06.35-.16s.15-.22.15-.35v-.16h.1v1.65h-.1v-.16c0-.14-.05-.26-.14-.35-.09-.1-.21-.15-.35-.16h-1.77v2.68c0,.18.07.33.2.46.13.13.29.19.47.19h.14v.1h-2.28v-.1h.13c.18,0,.34-.06.46-.19.13-.13.2-.28.2-.46v-5.84c0-.17-.07-.31-.2-.42-.13-.11-.29-.17-.46-.17h-.12v-.1s3.04,0,3.04,0c.22,0,.45-.02.7-.06.25-.04.43-.08.54-.13v.3Z" fill="#5c5145"/>
        <path d="M36.85,197.58h-.55v5.26c0,.22.1.38.29.49.09.05.19.07.3.07h.14v.1s-2.13,0-2.13,0v-.1h.15c.16,0,.3-.05.41-.16.12-.11.17-.24.17-.39v-4.95c0-.15-.06-.28-.17-.39-.11-.1-.25-.16-.41-.16h-.15v-.1h2.62c.65,0,1.17.15,1.55.45.38.3.57.69.57,1.18s-.15.89-.46,1.22c-.31.33-.7.51-1.17.56.22.1.49.37.8.81,0,0,.11.15.36.46.25.31.45.54.59.71s.27.3.37.39c.26.24.55.37.89.37v.1h-.32c-.55,0-.98-.11-1.29-.32-.24-.16-.45-.36-.65-.59-.04-.06-.22-.3-.53-.73-.31-.43-.47-.67-.5-.69-.38-.47-.73-.7-1.05-.7v-.1c.81,0,1.3-.04,1.47-.12.23-.12.38-.24.47-.38.17-.28.26-.58.26-.92,0-.42-.12-.75-.38-.98-.25-.23-.59-.35-1.01-.38-.19,0-.4-.01-.65-.01Z" fill="#5c5145"/>
        <path d="M43.81,197.52c.54-.27,1.12-.41,1.77-.41s1.23.14,1.77.41c.53.27.96.66,1.28,1.16s.47,1.07.47,1.7-.16,1.2-.47,1.7c-.32.5-.74.89-1.28,1.16-.54.27-1.08.41-1.65.41s-1.06-.08-1.49-.24c-.43-.16-.8-.38-1.12-.67-.32-.29-.57-.63-.75-1.04-.18-.41-.28-.89-.28-1.44s.16-1.08.47-1.58c.32-.5.74-.89,1.28-1.16ZM43.62,202.52c.52.55,1.18.83,1.95.83s1.43-.28,1.96-.83c.53-.55.79-1.26.79-2.13s-.26-1.58-.79-2.13c-.53-.55-1.18-.83-1.96-.83s-1.43.28-1.95.83c-.53.55-.79,1.26-.79,2.13s.26,1.58.79,2.13Z" fill="#5c5145"/>
        <path d="M59.47,203.41h.16v.1h-2.17v-.09h.16c.1,0,.2-.04.28-.12.08-.08.11-.18.1-.29l-.54-4.29-1.97,3.88c-.19.42-.32.78-.37,1.06h-.1l-2.51-4.85-.47,4.2c-.01.1.02.2.1.28.08.08.18.12.29.12h.15v.09h-1.93v-.1h.16c.25,0,.44-.09.58-.27.07-.09.11-.2.13-.32l.81-5.7h.1l2.75,5.29,2.66-5.29h.09l.84,5.72c.03.17.11.31.24.42.13.1.29.16.47.16Z" fill="#5c5145"/>
        <path d="M71.41,196.32h-.15c-.21,0-.4.06-.59.17-.18.11-.34.26-.46.43l-2.05,3.34v2.49c0,.18.06.33.19.46.13.13.29.19.47.19h.12v.1h-2.27v-.1h.14c.18,0,.33-.06.46-.19.13-.12.2-.28.2-.46v-2.51l-1.99-3.33c-.1-.17-.25-.31-.44-.43-.19-.12-.39-.18-.6-.18h-.15v-.1h2.56v.1h-.14c-.15,0-.27.07-.35.21-.04.08-.06.15-.06.22s.02.14.05.21l1.56,2.92,1.67-2.93c.04-.07.05-.14.05-.21s-.02-.14-.07-.22c-.08-.14-.2-.21-.35-.21h-.12v-.1h2.31v.1Z" fill="#5c5145"/>
        <path d="M72.73,203.41c.17,0,.31-.05.42-.16.11-.11.17-.24.18-.39v-4.95c0-.15-.06-.28-.18-.39-.12-.1-.26-.16-.43-.16h-.15v-.1h3.04c.28,0,.53-.02.75-.06.22-.04.35-.08.42-.1v1.19h-.11v-.17c0-.15-.05-.27-.15-.38-.1-.1-.22-.16-.38-.16h-2.17v2.65h1.78c.14,0,.25-.04.32-.13.07-.08.11-.19.11-.31v-.14h.11v1.46h-.11v-.14c0-.19-.07-.33-.22-.4-.06-.02-.11-.03-.18-.04h-1.81v2.65h1.64c.32,0,.59-.06.81-.17.22-.11.39-.24.5-.4.12-.15.23-.35.35-.6h.1l-.57,1.49h-4.23v-.1h.15Z" fill="#5c5145"/>
        <path d="M79.35,203.17c-.02-.08-.03-.25-.03-.51s.04-.52.14-.78h.12c0,.06-.01.13-.01.19,0,.38.12.68.37.92.25.24.59.36,1.03.36.46,0,.82-.11,1.07-.32.26-.21.39-.49.39-.82s-.12-.62-.38-.84l-2.08-1.6c-.33-.28-.5-.67-.5-1.15,0-.27.08-.52.22-.75.15-.23.36-.41.62-.55.27-.14.58-.2.94-.2s.68.03.96.09h.34l.02,1.14h-.12c0-.29-.1-.52-.3-.68-.2-.16-.49-.24-.87-.24s-.68.1-.93.29c-.24.19-.37.44-.37.74s.14.56.41.79l2.11,1.63c.32.26.48.63.48,1.1s-.18.87-.54,1.2c-.36.33-.79.49-1.31.49-.34,0-.68-.04-1.02-.12-.34-.08-.6-.21-.78-.36Z" fill="#5c5145"/>
        <path d="M94.39,197.14c0-.17-.06-.31-.18-.43s-.26-.19-.42-.19h-1.98v6.24c0,.18.07.33.2.46.13.12.28.19.46.19h.14v.1h-2.28v-.1h.14c.18,0,.33-.06.46-.19.13-.12.2-.27.2-.45v-6.25h-1.98c-.17,0-.31.07-.42.19-.12.12-.17.27-.17.43v.18h-.1s0-1.3,0-1.3c.1.04.28.08.54.12.26.04.49.06.71.06h3.52c.34,0,.62-.03.85-.08.23-.05.36-.09.41-.11v1.31h-.1v-.19Z" fill="#5c5145"/>
        <path d="M97.38,197.52c.54-.27,1.12-.41,1.77-.41s1.23.14,1.77.41c.53.27.96.66,1.28,1.16s.47,1.07.47,1.7-.16,1.2-.47,1.7c-.32.5-.74.89-1.28,1.16-.54.27-1.08.41-1.65.41s-1.06-.08-1.49-.24c-.43-.16-.8-.38-1.12-.67-.32-.29-.57-.63-.75-1.04-.18-.41-.28-.89-.28-1.44s.16-1.08.47-1.58c.32-.5.74-.89,1.28-1.16ZM97.19,202.52c.52.55,1.18.83,1.95.83s1.43-.28,1.96-.83c.53-.55.79-1.26.79-2.13s-.26-1.58-.79-2.13c-.53-.55-1.18-.83-1.96-.83s-1.43.28-1.95.83c-.53.55-.79,1.26-.79,2.13s.26,1.58.79,2.13Z" fill="#5c5145"/>
        <path d="M112.79,196.33v.88h-.1v-.16c0-.14-.05-.26-.15-.36-.1-.1-.22-.15-.37-.15h-2.2v3.22h1.76c.14,0,.26-.06.35-.16.1-.1.15-.22.15-.35v-.16h.1v1.65h-.1v-.16c0-.14-.05-.26-.14-.35-.09-.1-.21-.15-.35-.16h-1.77v2.68c0,.18.07.33.2.46.13.13.29.19.47.19h.14v.1h-2.28v-.1h.14c.18,0,.33-.06.46-.19.13-.13.2-.28.2-.46v-5.84c0-.17-.07-.31-.2-.42-.14-.11-.29-.17-.46-.17h-.12v-.1s3.04,0,3.04,0c.21,0,.45-.02.7-.06.25-.04.43-.08.54-.13v.3Z" fill="#5c5145"/>
        <path d="M116.66,197.52c.54-.27,1.12-.41,1.77-.41s1.23.14,1.77.41c.53.27.96.66,1.28,1.16s.47,1.07.47,1.7-.16,1.2-.47,1.7c-.32.5-.74.89-1.28,1.16-.54.27-1.08.41-1.65.41s-1.06-.08-1.49-.24c-.43-.16-.8-.38-1.12-.67-.32-.29-.57-.63-.75-1.04-.18-.41-.28-.89-.28-1.44s.16-1.08.47-1.58c.32-.5.74-.89,1.28-1.16ZM116.47,202.52c.52.55,1.18.83,1.95.83s1.43-.28,1.96-.83c.53-.55.79-1.26.79-2.13s-.26-1.58-.79-2.13c-.53-.55-1.18-.83-1.96-.83s-1.43.28-1.95.83c-.53.55-.79,1.26-.79,2.13s.26,1.58.79,2.13Z" fill="#5c5145"/>
        <path d="M125.87,197.58h-.55v5.26c0,.22.1.38.29.49.09.05.19.07.3.07h.14v.1s-2.13,0-2.13,0v-.1h.15c.16,0,.3-.05.41-.16.12-.11.17-.24.17-.39v-4.95c0-.15-.06-.28-.17-.39-.11-.1-.25-.16-.41-.16h-.15v-.1h2.62c.65,0,1.17.15,1.55.45.38.3.57.69.57,1.18s-.15.89-.46,1.22c-.31.33-.7.51-1.17.56.22.1.49.37.8.81,0,0,.11.15.36.46.25.31.45.54.59.71s.27.3.37.39c.26.24.55.37.89.37v.1h-.32c-.55,0-.98-.11-1.29-.32-.24-.16-.45-.36-.65-.59-.04-.06-.22-.3-.53-.73-.31-.43-.47-.67-.5-.69-.38-.47-.73-.7-1.05-.7v-.1c.81,0,1.3-.04,1.47-.12.23-.12.38-.24.47-.38.17-.28.26-.58.26-.92,0-.42-.12-.75-.38-.98-.25-.23-.59-.35-1.01-.38-.19,0-.4-.01-.65-.01Z" fill="#5c5145"/>
        <path d="M131.64,203.41c.17,0,.31-.05.42-.16.11-.11.17-.24.18-.39v-4.95c0-.15-.06-.28-.18-.39-.12-.1-.26-.16-.43-.16h-.15v-.1h3.04c.28,0,.53-.02.75-.06.22-.04.35-.08.42-.1v1.19h-.11v-.17c0-.15-.05-.27-.15-.38-.1-.1-.22-.16-.38-.16h-2.17v2.65h1.78c.14,0,.25-.04.32-.13.07-.08.11-.19.11-.31v-.14h.11v1.46h-.11v-.14c0-.19-.07-.33-.22-.4-.06-.02-.11-.03-.18-.04h-1.81v2.65h1.64c.32,0,.59-.06.81-.17.22-.11.39-.24.5-.4.12-.15.23-.35.35-.6h.1l-.57,1.49h-4.23v-.1h.15Z" fill="#5c5145"/>
        <path d="M144.63,197.36h-.08c-.15,0-.3.05-.45.15-.15.1-.27.25-.38.45-1.51,3.25-2.3,4.96-2.37,5.11-.12.29-.18.49-.19.58h-.09l-2.57-5.68c-.2-.41-.47-.61-.8-.61h-.08v-.1h2.14v.1h-.08c-.13,0-.23.05-.3.14s-.1.18-.1.26,0,.16.03.24l1.87,4.54,1.92-4.52c.04-.09.05-.18.05-.26s-.04-.17-.1-.26-.17-.14-.31-.14h-.07v-.1h1.98v.1Z" fill="#5c5145"/>
        <path d="M146.33,203.41c.17,0,.31-.05.42-.16.11-.11.18-.24.18-.39v-4.95c0-.15-.06-.28-.18-.39-.12-.1-.26-.16-.43-.16h-.15v-.1h3.04c.29,0,.54-.02.75-.06.21-.04.35-.08.42-.1v1.19h-.12v-.17c0-.15-.05-.27-.15-.38-.1-.1-.22-.16-.38-.16h-2.17v2.65h1.78c.14,0,.25-.04.32-.13.07-.08.11-.19.11-.31v-.14h.12v1.46h-.12v-.14c0-.19-.07-.33-.22-.4-.06-.02-.11-.03-.18-.04h-1.81v2.65h1.64c.32,0,.59-.06.81-.17.22-.11.39-.24.5-.4.11-.15.23-.35.35-.6h.1l-.57,1.49h-4.23v-.1h.15Z" fill="#5c5145"/>
        <path d="M154.76,197.58h-.55v5.26c0,.22.1.38.29.49.09.05.19.07.3.07h.14v.1s-2.13,0-2.13,0v-.1h.15c.16,0,.3-.05.41-.16.12-.11.17-.24.17-.39v-4.95c0-.15-.06-.28-.17-.39-.11-.1-.25-.16-.41-.16h-.15v-.1h2.62c.65,0,1.17.15,1.55.45.38.3.57.69.57,1.18s-.15.89-.46,1.22c-.31.33-.7.51-1.17.56.22.1.49.37.8.81,0,0,.11.15.36.46.25.31.45.54.59.71s.27.3.37.39c.26.24.55.37.89.37v.1h-.32c-.55,0-.98-.11-1.29-.32-.24-.16-.45-.36-.65-.59-.04-.06-.22-.3-.53-.73-.31-.43-.47-.67-.5-.69-.38-.47-.73-.7-1.05-.7v-.1c.81,0,1.3-.04,1.47-.12.23-.12.38-.24.47-.38.17-.28.26-.58.26-.92,0-.42-.12-.75-.38-.98-.25-.23-.59-.35-1.01-.38-.19,0-.4-.01-.65-.01Z" fill="#5c5145"/>
      </g>
    </g>
  </g>
</svg>