<?xml version="1.0" encoding="UTF-8"?>
<svg id="b" data-name="Livello 2" xmlns="http://www.w3.org/2000/svg" viewBox="0 0 168.14 49.95">
  <g id="c" data-name="Livello 1">
    <g>
      <path d="M34.86,7.34h-.41c-1.04,0-1.99.41-2.84,1.24-.49.43-.87.96-1.15,1.61l-11.05,24.72c-1.13,2.48-1.7,4.05-1.7,4.72h-.41L4.4,10.23c-.43-.98-1.02-1.7-1.77-2.18-.75-.47-1.51-.71-2.27-.71H0v-.46h10.32v.46h-.41c-.92,0-1.53.43-1.83,1.28-.06.18-.09.4-.09.64s.08.55.23.92l9.59,24.03,10-24.03c.12-.37.18-.73.18-1.08s-.16-.73-.48-1.15c-.32-.41-.8-.62-1.44-.62h-.41v-.46h9.22v.46Z" fill="#f5edd6"/>
      <path d="M52.83,38.53c.79,0,1.47-.28,2.04-.85s.86-1.25.89-2.04V9.95c-.09-.73-.41-1.35-.96-1.86-.55-.5-1.21-.76-1.97-.76h-.55l-.05-.46h13.44c.95,0,1.98-.09,3.1-.28,1.12-.18,1.9-.37,2.36-.55v5.78h-.46v-.83c0-.73-.25-1.36-.76-1.88-.5-.52-1.11-.79-1.81-.83h-9.36v14.17h7.75c.61-.03,1.13-.26,1.56-.69.43-.43.64-.96.64-1.61v-.64h.46v7.25h-.46v-.69c0-.61-.21-1.13-.62-1.56-.41-.43-.92-.66-1.54-.69h-7.8v13.71h6.56c2.26,0,3.99-.5,5.18-1.51,1.19-1.01,2.19-2.51,2.98-4.5h.46l-2.66,7.43h-19.03v-.46h.6Z" fill="#f5edd6"/>
      <path d="M93.06,38.53c.79,0,1.47-.28,2.04-.85s.86-1.25.89-2.04V10.23c-.03-.79-.33-1.47-.89-2.04-.57-.57-1.25-.85-2.04-.85h-.6v-.46h10.04v.46h-.6c-1.1,0-1.94.47-2.52,1.42-.28.46-.41.95-.41,1.47v27.33h6.56c2.26,0,3.99-.5,5.18-1.51,1.19-1.01,2.19-2.51,2.98-4.5h.46l-2.66,7.43h-19.03v-.46h.6Z" fill="#f5edd6"/>
      <path d="M137.48,10.85c3.04-3.07,7.01-4.61,11.9-4.61s8.87,1.54,11.92,4.61c3.06,3.07,4.59,7.1,4.59,12.08s-1.53,9.01-4.59,12.08c-3.06,3.07-7.03,4.61-11.92,4.61s-8.86-1.54-11.9-4.61c-3.04-3.07-4.56-7.1-4.56-12.08s1.52-9.01,4.56-12.08ZM140,34.03c2.37,2.81,5.5,4.22,9.4,4.22s7.03-1.41,9.4-4.22c2.37-2.81,3.55-6.51,3.55-11.1,0-3.03-.54-5.7-1.6-8.03-1.07-2.32-2.59-4.12-4.56-5.39-1.97-1.27-4.24-1.9-6.81-1.9-3.88,0-7.01,1.41-9.38,4.22-2.37,2.81-3.55,6.51-3.55,11.1s1.18,8.29,3.55,11.1Z" fill="#f5edd6"/>
    </g>
  </g>
</svg>